<?xml version="1.0" encoding="UTF-8" standalone="no"?>
<!-- Created with Inkscape (http://www.inkscape.org/) -->

<svg
   version="1.1"
   id="svg2"
   xml:space="preserve"
   width="43.438667"
   height="42.366489"
   viewBox="0 0 43.438667 42.366489"
   xmlns="http://www.w3.org/2000/svg"
   xmlns:svg="http://www.w3.org/2000/svg"><defs
     id="defs6"><clipPath
       clipPathUnits="userSpaceOnUse"
       id="clipPath18"><path
         d="M 0,551.986 H 530.973 V 0 H 0 Z"
         id="path16" /></clipPath></defs><g
     id="g8"
     transform="matrix(1.3333333,0,0,-1.3333333,-296.04189,450.59848)"><g
       id="g24"
       transform="translate(359.57854,481.81085)" /><g
       id="g28"
       transform="translate(322.06294,395.10765)" /><g
       id="g32"
       transform="translate(324.50924,392.37915)" /><g
       id="g36"
       transform="translate(326.89014,388.90165)" /><g
       id="g40"
       transform="translate(330.15184,385.54125)" /><g
       id="g44"
       transform="translate(334.65184,383.59015)" /><g
       id="g48"
       transform="translate(339.59424,383.22875)" /><g
       id="g52"
       transform="translate(344.19284,384.01105)" /><g
       id="g56"
       transform="translate(233.86764,487.74435)" /><g
       id="g60"
       transform="translate(233.86764,485.24435)" /><g
       id="g64"
       transform="translate(233.86764,350.25125)" /><g
       id="g68"
       transform="translate(142.24554,335.73565)" /><g
       id="g72"
       transform="translate(146.52344,334.54125)" /><g
       id="g76"
       transform="translate(159.13524,331.33225)" /><g
       id="g84"
       transform="translate(110.82374,319.24245)" /><g
       id="g88"
       transform="translate(115.89354,316.03155)" /><g
       id="g92"
       transform="translate(122.81144,320.14185)" /><g
       id="g96"
       transform="translate(131.70304,313.93775)" /><g
       id="g100"
       transform="translate(137.79924,318.35965)" /><g
       id="g104"
       transform="translate(147.28564,317.93975)" /><g
       id="g108"
       transform="translate(149.18694,320.14185)" /><g
       id="g114"
       transform="translate(163.04684,313.93775)" /><g
       id="g118"
       transform="translate(167.12694,320.63305)" /><g
       id="g122"
       transform="translate(174.75294,317.05105)" /><g
       id="g126"
       transform="translate(185.30124,317.93975)" /><g
       id="g130"
       transform="translate(187.20264,320.14185)" /><g
       id="g134"
       transform="translate(344.60304,336.90655)" /><g
       id="g138"
       transform="translate(353.30314,331.33225)" /><g
       id="g142"
       transform="translate(357.33444,334.54325)" /><g
       id="g146"
       transform="translate(363.42424,329.37725)" /><g
       id="g150"
       transform="translate(371.10394,332.71905)" /><g
       id="g154"
       transform="translate(374.32664,334.54325)" /><g
       id="g158"
       transform="translate(327.22704,319.24245)" /><g
       id="g162"
       transform="translate(332.29734,316.03345)" /><g
       id="g166"
       transform="translate(339.21534,320.14285)" /><g
       id="g170"
       transform="translate(348.10594,313.93875)" /><g
       id="g174"
       transform="translate(352.18694,320.63505)" /><g
       id="g178"
       transform="translate(359.81294,317.05295)" /><g
       id="g182"
       transform="translate(370.36084,317.94065)" /><g
       id="g186"
       transform="translate(372.26214,320.14285)" /><g
       id="g190"
       transform="translate(388.16254,317.38305)" /><g
       id="g194"
       transform="translate(238.31942,337.94887)"><path
         d="m 0,0 c -8.995,0 -16.288,-7.293 -16.288,-16.29 0,-7.197 4.667,-13.302 11.14,-15.457 0.815,-0.149 1.112,0.354 1.112,0.786 0,0.386 -0.014,1.411 -0.022,2.77 -4.531,-0.984 -5.487,2.184 -5.487,2.184 -0.741,1.882 -1.809,2.383 -1.809,2.383 -1.479,1.01 0.112,0.99 0.112,0.99 1.635,-0.115 2.495,-1.679 2.495,-1.679 1.453,-2.489 3.813,-1.77 4.741,-1.353 0.148,1.052 0.568,1.77 1.034,2.177 -3.617,0.411 -7.42,1.809 -7.42,8.051 0,1.778 0.635,3.232 1.677,4.371 -0.168,0.412 -0.727,2.068 0.159,4.311 0,0 1.368,0.438 4.48,-1.67 1.299,0.362 2.693,0.542 4.078,0.548 1.383,-0.006 2.777,-0.186 4.078,-0.548 3.11,2.108 4.475,1.67 4.475,1.67 0.889,-2.243 0.33,-3.899 0.162,-4.311 1.044,-1.139 1.675,-2.593 1.675,-4.371 0,-6.258 -3.809,-7.635 -7.438,-8.038 0.585,-0.503 1.106,-1.497 1.106,-3.017 0,-2.177 -0.02,-3.934 -0.02,-4.468 0,-0.436 0.293,-0.943 1.12,-0.784 6.468,2.159 11.131,8.26 11.131,15.455 C 16.291,-7.293 8.997,0 0,0"
         style="fill:#ffffff;fill-opacity:1;fill-rule:evenodd;stroke:none"
         id="path196" /></g><g
       id="g198"
       transform="translate(359.57854,205.81085)" /><g
       id="g202"
       transform="translate(322.06294,119.10765)" /><g
       id="g206"
       transform="translate(324.50924,116.37915)" /><g
       id="g210"
       transform="translate(326.89014,112.90165)" /><g
       id="g214"
       transform="translate(330.15184,109.54125)" /><g
       id="g218"
       transform="translate(334.65184,107.59015)" /><g
       id="g222"
       transform="translate(339.59424,107.22875)" /><g
       id="g226"
       transform="translate(344.19284,108.01105)" /><g
       id="g230"
       transform="translate(233.86764,211.74435)" /><g
       id="g234"
       transform="translate(233.86764,209.24435)" /><g
       id="g238"
       transform="translate(233.86764,74.251252)" /><g
       id="g242"
       transform="translate(142.24554,59.735652)" /><g
       id="g246"
       transform="translate(146.52344,58.541252)" /><g
       id="g250"
       transform="translate(159.13524,55.332252)" /><g
       id="g258"
       transform="translate(110.82374,43.242452)" /><g
       id="g262"
       transform="translate(115.89354,40.031552)" /><g
       id="g266"
       transform="translate(122.81144,44.141852)" /><g
       id="g270"
       transform="translate(131.70304,37.937752)" /><g
       id="g274"
       transform="translate(137.79924,42.359652)" /><g
       id="g278"
       transform="translate(147.28564,41.939752)" /><g
       id="g282"
       transform="translate(149.18694,44.141852)" /><g
       id="g288"
       transform="translate(163.04684,37.937752)" /><g
       id="g292"
       transform="translate(167.12694,44.633052)" /><g
       id="g296"
       transform="translate(174.75294,41.051052)" /><g
       id="g300"
       transform="translate(185.30124,41.939752)" /><g
       id="g304"
       transform="translate(187.20264,44.141852)" /><g
       id="g308"
       transform="translate(344.60304,60.906552)" /><g
       id="g312"
       transform="translate(353.30314,55.332252)" /><g
       id="g316"
       transform="translate(357.33444,58.543252)" /><g
       id="g320"
       transform="translate(363.42424,53.377252)" /><g
       id="g324"
       transform="translate(371.10394,56.719052)" /><g
       id="g328"
       transform="translate(374.32664,58.543252)" /><g
       id="g332"
       transform="translate(327.22704,43.242452)" /><g
       id="g336"
       transform="translate(332.29734,40.033452)" /><g
       id="g340"
       transform="translate(339.21534,44.142852)" /><g
       id="g344"
       transform="translate(348.10594,37.938752)" /><g
       id="g348"
       transform="translate(352.18694,44.635052)" /><g
       id="g352"
       transform="translate(359.81294,41.052952)" /><g
       id="g356"
       transform="translate(370.36084,41.940652)" /><g
       id="g360"
       transform="translate(372.26214,44.142852)" /><g
       id="g364"
       transform="translate(388.16254,41.383052)" /></g></svg>
